<?xml version="1.0" encoding="UTF-8"?>
<svg version="1.1" xmlns="http://www.w3.org/2000/svg" width="500" height="500">
<path d="M0 0 C2.51279974 1.50305506 4.87957786 3.09669259 7.234375 4.8359375 C7.82476562 5.26519531 8.41515625 5.69445312 9.0234375 6.13671875 C10.13942869 6.94858912 11.25397289 7.76245162 12.3671875 8.578125 C14.52488148 10.03163433 16.74978151 11.23907926 19.046875 12.4609375 C24.82891118 15.54889143 30.39148842 18.94057619 35.97021484 22.37646484 C40.98432935 25.46343159 46.01767667 28.51456132 51.07324219 31.53320312 C53.6252356 33.05806954 56.17247151 34.59061399 58.71875 36.125 C61.34237369 37.70590145 63.9731227 39.26318559 66.625 40.796875 C77.792929 47.4414808 84.64747971 55.96398159 88.264328 68.36824036 C89.44805912 73.17038999 89.52280861 77.79164548 89.5090332 82.7175293 C89.5166996 84.15099449 89.5166996 84.15099449 89.52452087 85.61341858 C89.53835242 88.75406261 89.53746441 91.89448549 89.53515625 95.03515625 C89.53904774 97.2346047 89.54338334 99.4340524 89.54814148 101.63349915 C89.55559065 106.23900795 89.5553226 110.84444008 89.55004883 115.44995117 C89.54426715 121.32261846 89.56116028 127.19496904 89.5843935 133.06758404 C89.59920159 137.61035466 89.59999275 142.15305035 89.59688377 146.69584084 C89.5973938 148.85935911 89.60257106 151.02288193 89.61269569 153.18637657 C89.75135483 186.96875291 89.75135483 186.96875291 78.859375 198.30859375 C77.993125 199.14261719 77.126875 199.97664062 76.234375 200.8359375 C75.47898437 201.64933594 74.72359375 202.46273437 73.9453125 203.30078125 C69.07915173 208.45175076 64.55098609 212.12016954 58.21875 215.27734375 C54.73883005 217.0947365 51.50978464 219.17824529 48.234375 221.3359375 C43.30979822 224.55720727 38.32634858 227.49354143 33.125 230.25390625 C29.70560574 232.12533149 26.37862597 234.12634112 23.046875 236.1484375 C17.78950815 239.33673707 12.48263226 242.40970839 7.109375 245.3984375 C1.18820892 248.69696719 -4.60423332 252.1555631 -10.359375 255.73828125 C-14.27253271 258.16309127 -18.2347982 260.5028251 -22.203125 262.8359375 C-22.92749756 263.26197266 -23.65187012 263.68800781 -24.39819336 264.12695312 C-27.70549145 266.06539419 -31.01948957 267.98840615 -34.36328125 269.86328125 C-41.45353018 273.84391469 -48.27576405 278.07233525 -55.06689453 282.53857422 C-62.83845251 287.60988986 -70.87675674 292.20439266 -78.95068359 296.77368164 C-80.59226225 297.73447109 -82.18300129 298.78085502 -83.765625 299.8359375 C-90.33166274 299.26989976 -90.33166274 299.26989976 -91.765625 297.8359375 C-91.88507575 296.23126366 -91.93574508 294.62140394 -91.95849609 293.01245117 C-91.97455902 291.98435837 -91.99062195 290.95626556 -92.00717163 289.89701843 C-92.05145074 285.18582674 -92.09269035 280.47477869 -92.11572266 275.76342773 C-92.13228909 273.2753769 -92.15958776 270.78737379 -92.19775391 268.29956055 C-92.25240118 264.72159 -92.27437949 261.14473742 -92.2890625 257.56640625 C-92.31173187 256.45275192 -92.33440125 255.3390976 -92.35775757 254.19169617 C-92.33656725 246.47740826 -92.33656725 246.47740826 -89.46118164 243.24682617 C-88.57164795 242.78123291 -87.68211426 242.31563965 -86.765625 241.8359375 C-86.14824463 241.42617676 -85.53086426 241.01641602 -84.89477539 240.59423828 C-84.30688232 240.24345215 -83.71898926 239.89266602 -83.11328125 239.53125 C-82.09016846 238.91491699 -82.09016846 238.91491699 -81.04638672 238.28613281 C-79.94834717 237.63016113 -79.94834717 237.63016113 -78.828125 236.9609375 C-71.87310705 232.75903687 -64.98623048 228.46375509 -58.140625 224.0859375 C-49.1783701 218.35775631 -40.1761602 212.69688036 -31.14794922 207.07324219 C-26.45967213 204.15145681 -21.78317496 201.21400107 -17.12890625 198.23828125 C-13.07331493 195.6510127 -8.98200264 193.13667373 -4.85473633 190.66577148 C8.2601616 182.78873443 20.05906473 175.51861207 24.7265625 160.0390625 C27.67604424 147.24284941 27.55657566 133.72822821 20.65625 122.19921875 C13.91919152 113.0192179 6.31738394 109.24697804 -4.765625 106.8359375 C-18.35709167 105.20713324 -28.5126548 110.99573725 -39.765625 117.8359375 C-40.50506348 118.28098633 -41.24450195 118.72603516 -42.00634766 119.18457031 C-52.47968602 125.46956443 -52.47968602 125.46956443 -62.703125 132.1484375 C-65.62116039 134.13494621 -68.58790002 135.86260972 -71.703125 137.5234375 C-77.40414415 140.57135078 -82.8830003 143.92864075 -88.38330078 147.31958008 C-94.40561475 151.02443258 -100.48040237 154.63179267 -106.578125 158.2109375 C-114.81574907 163.05063157 -122.95504527 168.02869363 -131.05932617 173.08789062 C-136.93971492 176.74418296 -142.88565276 180.26358337 -148.890625 183.7109375 C-150.45066695 184.61302861 -152.01056899 185.51536172 -153.5703125 186.41796875 C-156.0863314 187.87333513 -158.60967694 189.30669626 -161.1484375 190.72265625 C-167.93543407 194.68944307 -171.69366938 199.15838146 -175.765625 205.8359375 C-178.81693187 210.60360449 -178.81693187 210.60360449 -182.828125 211.5859375 C-190.39259461 210.98532511 -197.17287028 204.80108996 -202.140625 199.5234375 C-210.08388946 189.93617774 -213.09925842 179.50313553 -213.03125 167.21484375 C-213.03316345 166.43004135 -213.0350769 165.64523895 -213.03704834 164.83665466 C-213.03839846 163.1904976 -213.03478484 161.54432946 -213.02636719 159.89819336 C-213.0156652 157.40779178 -213.0262951 154.91811377 -213.0390625 152.42773438 C-213.06367811 127.18900106 -213.06367811 127.18900106 -204.2109375 118.26953125 C-202.77257848 117.07089873 -201.27130317 115.94883006 -199.765625 114.8359375 C-199.12753906 114.1553125 -199.12753906 114.1553125 -198.4765625 113.4609375 C-196.06652278 111.17195 -193.31406908 109.47872099 -190.515625 107.7109375 C-189.90082275 107.31914307 -189.28602051 106.92734863 -188.65258789 106.52368164 C-182.96633969 102.92059281 -177.19710575 99.46031704 -171.4140625 96.015625 C-156.57783907 87.17320462 -141.99676343 77.89187385 -127.40478516 68.65380859 C-122.86369337 65.78206183 -118.31259273 62.92732394 -113.75 60.08984375 C-104.50662836 54.3399613 -95.289177 48.58977613 -86.28417969 42.47216797 C-80.39035747 38.50738227 -74.28029245 34.91907091 -68.17138672 31.29833984 C-62.44285974 27.88706828 -56.87333112 24.30793421 -51.35864258 20.56347656 C-44.31105873 15.8032748 -37.03385224 11.42245175 -29.75097656 7.03417969 C-27.99941521 5.97703961 -26.25319078 4.91106766 -24.5078125 3.84375 C-23.62351562 3.30492188 -22.73921875 2.76609375 -21.828125 2.2109375 C-20.73177734 1.54191406 -20.73177734 1.54191406 -19.61328125 0.859375 C-13.78504925 -2.36894801 -6.09050285 -2.56351674 0 0 Z " fill="#F6BA05" transform="translate(337.765625,63.1640625)"/>
<path d="M0 0 C0.9075 -0.02449219 1.815 -0.04898437 2.75 -0.07421875 C9.04971545 -0.10145095 13.29709434 1.0468599 18.625 4.375 C19.69621094 5.02597656 20.76742187 5.67695313 21.87109375 6.34765625 C22.92425781 7.03730469 23.97742188 7.72695313 25.0625 8.4375 C26.28122994 9.23180161 27.4999809 10.02607098 28.71875 10.8203125 C29.67007813 11.44341309 29.67007813 11.44341309 30.640625 12.07910156 C33.39014307 13.87467758 36.15232429 15.6503267 38.91455078 17.42626953 C41.06105437 18.81156703 43.19842825 20.2102514 45.3359375 21.609375 C48.20120982 23.47763212 51.09883009 25.26794354 54.0390625 27.015625 C55.08622437 27.65866577 55.08622437 27.65866577 56.15454102 28.31469727 C57.47441556 29.12481841 58.8079135 29.91329563 60.15600586 30.67553711 C61.94140625 31.79296875 61.94140625 31.79296875 64.625 34.375 C65.1688798 37.24671231 64.94618389 39.42197917 64.625 42.375 C62.97951172 43.27992187 62.97951172 43.27992187 61.30078125 44.203125 C59.84621872 45.0101726 58.39179917 45.81747792 56.9375 46.625 C56.21626953 47.02074219 55.49503906 47.41648438 54.75195312 47.82421875 C50.72919809 50.06520558 47.18921908 52.43870543 43.625 55.375 C41.78949112 56.55048934 39.93328936 57.69401209 38.0625 58.8125 C32.27078333 62.31334267 26.59796301 65.97880849 20.9375 69.6875 C13.93213124 74.26684668 6.86932405 78.72352982 -0.28808594 83.06079102 C-6.8301632 87.02826741 -13.32562872 91.06795678 -19.8125 95.125 C-20.79508789 95.73907715 -21.77767578 96.3531543 -22.79003906 96.98583984 C-27.58146552 99.98472623 -32.36118999 103.00038788 -37.125 106.04296875 C-41.35814068 108.74108092 -45.62240537 111.37294121 -49.9375 113.9375 C-50.89861694 114.51189819 -50.89861694 114.51189819 -51.87915039 115.09790039 C-54.58115925 116.71244499 -57.28601122 118.32213801 -59.9921875 119.9296875 C-64.95449532 122.88702246 -69.8593565 125.92630828 -74.75 129 C-80.97541601 132.91070402 -87.2528467 136.72682495 -93.5625 140.5 C-119.18971056 154.30920616 -119.18971056 154.30920616 -133.375 178.375 C-133.90219639 182.29980553 -133.96074201 186.15687147 -133.94140625 190.11328125 C-133.94760483 191.19651169 -133.95380341 192.27974213 -133.96018982 193.39579773 C-133.96724715 195.67230336 -133.96418616 197.94886105 -133.95141602 200.2253418 C-133.93757519 203.66879452 -133.97165783 207.10951113 -134.00976562 210.55273438 C-134.06847077 227.20525147 -132.13979203 240.91334428 -121.375 254.375 C-116.31725465 259.42111835 -109.54355922 262.75755125 -103.390625 266.30517578 C-98.48050102 269.16399797 -98.48050102 269.16399797 -97.375 271.375 C-97.27491342 273.26864097 -97.23989892 275.16584193 -97.23455811 277.06211853 C-97.22884796 278.27217056 -97.22313782 279.4822226 -97.21725464 280.72894287 C-97.21600924 282.07702626 -97.21488415 283.42510977 -97.21386719 284.77319336 C-97.20923993 286.1873233 -97.20421539 287.60145199 -97.19882202 289.01557922 C-97.18568865 292.86264649 -97.17925145 296.7096963 -97.17481136 300.55678248 C-97.17188265 302.95857336 -97.16777826 305.36035944 -97.16330719 307.7621479 C-97.14963089 315.27195652 -97.13996442 322.78175421 -97.1361053 330.29157442 C-97.13162157 338.96986068 -97.11405972 347.64798966 -97.0851047 356.32622808 C-97.0635158 363.02859858 -97.05340255 369.73092473 -97.05206418 376.43332964 C-97.0510143 380.43919035 -97.04506778 384.44490326 -97.02724457 388.45072746 C-97.01081156 392.21738249 -97.00858492 395.98377784 -97.01738358 399.75045586 C-97.01815648 401.13439121 -97.01377801 402.51834026 -97.00392532 403.90224075 C-96.99128205 405.78841778 -96.99884645 407.67469831 -97.00750732 409.56089783 C-97.00530748 411.14571158 -97.00530748 411.14571158 -97.0030632 412.76254177 C-97.375 415.375 -97.375 415.375 -98.70265579 417.23447514 C-100.375 418.375 -100.375 418.375 -103.5 418.4375 C-107.6361413 417.64142259 -110.57277217 415.43356121 -113.9609375 413.03125 C-116.32957595 411.40616472 -118.71566832 410.03705123 -121.25 408.6875 C-135.79607829 400.89064086 -149.89010021 392.29744866 -163.95703125 383.67578125 C-167.24876259 381.66112882 -170.55163133 379.67248511 -173.88671875 377.73046875 C-186.7863156 370.21659359 -199.65552211 360.66093822 -203.90100384 345.4961195 C-208.24195336 326.07049244 -205.53952266 303.14745851 -205.54225707 283.29540992 C-205.5429746 280.36279412 -205.54512169 277.4301828 -205.54775429 274.49756813 C-205.55694882 264.2425978 -205.56109545 253.98764033 -205.56030273 243.73266602 C-205.55969918 234.20524214 -205.57032024 224.67787437 -205.5860464 215.15046471 C-205.59913026 206.92828981 -205.60448648 198.70613328 -205.60384732 190.48394805 C-205.60359317 185.59068008 -205.6064004 180.69746244 -205.61702538 175.80420494 C-205.62672405 171.21489603 -205.62677346 166.62568558 -205.61950874 162.03637314 C-205.61846606 160.35823611 -205.6208069 158.68009287 -205.6268692 157.00196648 C-205.68344842 140.2513261 -203.15015724 126.72568929 -191.38232422 113.88232422 C-184.90273744 107.40273744 -176.69038977 103.22107399 -168.77539062 98.75488281 C-165.37954416 96.80275464 -162.09083536 94.70446284 -158.8125 92.5625 C-157.70648438 91.84449219 -156.60046875 91.12648438 -155.4609375 90.38671875 C-153.93339844 89.39091797 -153.93339844 89.39091797 -152.375 88.375 C-146.43758165 84.53658448 -140.45015057 80.80398448 -134.375 77.1875 C-122.46523379 70.09449015 -110.81980273 62.57289027 -99.1328125 55.12109375 C-95.11682879 52.57839585 -91.07992629 50.06945353 -87.0456543 47.5559082 C-81.17198651 43.88886953 -75.33548187 40.16491025 -69.5 36.4375 C-62.76886148 32.14106551 -56.01264395 27.89554198 -49.1875 23.75 C-42.78337887 19.85830371 -36.40798489 15.92421121 -30.0625 11.9375 C-29.26755127 11.4410498 -28.47260254 10.94459961 -27.65356445 10.43310547 C-24.51859449 8.4565719 -21.55888718 6.52819444 -18.70703125 4.15234375 C-13.02422677 -0.1787719 -6.84729126 0.00964407 0 0 Z " fill="#2EA945" transform="translate(251.375,15.625)"/>
<path d="M0 0 C1.75 1.5703125 1.75 1.5703125 2.75 4.5703125 C3.41 4.5703125 4.07 4.5703125 4.75 4.5703125 C7.95303913 11.64369057 9.20536348 18.39842759 7.05859375 26.02734375 C2.8087477 36.46525016 -4.65893798 41.51253927 -14.02636719 47.21484375 C-16.50721065 48.72710142 -18.9767183 50.25689377 -21.4453125 51.7890625 C-25.09270235 54.0520035 -28.74242993 56.31107699 -32.39453125 58.56640625 C-39.53605945 62.98074892 -46.61667304 67.46353715 -53.58032227 72.15356445 C-59.80087778 76.33936621 -66.08699894 80.34233446 -72.53613281 84.16650391 C-77.30838908 86.99714361 -82.04050344 89.88640194 -86.75 92.8203125 C-87.39638428 93.22056641 -88.04276855 93.62082031 -88.70874023 94.03320312 C-90.56781543 95.19473385 -92.41218115 96.37545947 -94.25 97.5703125 C-94.8785791 97.97556152 -95.5071582 98.38081055 -96.15478516 98.79833984 C-99.94145681 101.34972836 -102.37194209 103.62487087 -104.625 107.6953125 C-105.10710937 108.54351562 -105.58921875 109.39171875 -106.0859375 110.265625 C-108.42837393 114.9033347 -108.42012162 119.09151824 -108.45532227 124.17260742 C-108.46522186 125.05086685 -108.47512146 125.92912628 -108.48532104 126.83399963 C-108.51693119 129.739566 -108.54169161 132.64514872 -108.56640625 135.55078125 C-108.58697619 137.56432014 -108.60797268 139.57785472 -108.62937927 141.59138489 C-108.68459577 146.89318347 -108.73400695 152.19502099 -108.78222656 157.49688721 C-108.83244463 162.90616322 -108.88812911 168.31538263 -108.94335938 173.72460938 C-109.0509358 184.3397954 -109.15238196 194.95503056 -109.25 205.5703125 C-108.13252632 204.8561895 -108.13252632 204.8561895 -106.99247742 204.12763977 C-106.00971329 203.5006871 -105.02694916 202.87373444 -104.0144043 202.2277832 C-103.04254684 201.6073262 -102.07068939 200.9868692 -101.06938171 200.34761047 C-97.44815841 198.06484301 -93.76795186 195.89989189 -90.0625 193.7578125 C-82.35573367 189.26169521 -74.77908276 184.58139257 -67.23388672 179.8203125 C-63.91199624 177.72726805 -60.58062562 175.64941802 -57.25 173.5703125 C-53.35079333 171.13625371 -49.45288486 168.70043872 -45.56640625 166.24609375 C-36.44121133 160.49442666 -27.21219992 154.92611794 -17.95678711 149.38671875 C-2.95989755 140.40954078 11.98818091 131.36652414 26.73510742 121.98339844 C33.3900959 117.76326539 40.13146075 113.69537274 46.90307617 109.66552734 C48.07060425 108.97064209 48.07060425 108.97064209 49.26171875 108.26171875 C50.01348389 107.81586426 50.76524902 107.37000977 51.53979492 106.91064453 C53.73479126 105.57953552 55.88031012 104.18599004 58.03125 102.78515625 C61.95261973 100.34250311 64.70990791 99.48763057 69.36328125 99.6953125 C81.46900149 102.82297263 97.53410856 113.09043776 105.75 122.5703125 C105.75 123.2303125 105.75 123.8903125 105.75 124.5703125 C106.74 124.9003125 107.73 125.2303125 108.75 125.5703125 C115.28371754 133.88929934 114.88460411 145.1443572 114.07080078 155.16210938 C112.6983224 165.46509776 105.64390839 173.32978977 97.75 179.5703125 C93.08029913 182.73307358 88.14678608 185.4459738 83.22021484 188.18261719 C78.70799818 190.71745011 74.26446536 193.3690661 69.8125 196.0078125 C68.41366577 196.83369873 68.41366577 196.83369873 66.98657227 197.67626953 C60.36227243 201.59311656 53.78619353 205.58324808 47.23120117 209.61474609 C41.53990474 213.10816084 35.79131495 216.49526403 30.02246094 219.85864258 C24.36206298 223.1737728 18.79664379 226.62791567 13.27685547 230.17211914 C9.54279953 232.5455939 5.75826369 234.59286329 1.78393555 236.53369141 C-1.78190334 238.3510665 -5.16189047 240.46410146 -8.5625 242.5703125 C-9.3373877 243.04670166 -10.11227539 243.52309082 -10.91064453 244.01391602 C-17.30091703 247.95404886 -23.64010782 251.97362808 -29.97485352 256.00219727 C-36.7380614 260.28660436 -43.59161432 264.41110993 -50.48974609 268.47436523 C-54.08649781 270.60625403 -57.59035679 272.76282244 -60.96484375 275.234375 C-63.86085717 277.35094996 -66.81084825 278.97317522 -70.0625 280.5078125 C-74.86998926 282.83634609 -79.39903711 285.3975321 -83.8984375 288.2734375 C-91.44635276 292.43607515 -99.74726467 292.7695293 -108.08203125 290.953125 C-115.13845516 288.61820289 -121.16659985 284.72261602 -127.39013672 280.73388672 C-130.12682258 279.02175167 -132.92007669 277.4119538 -135.71411133 275.7956543 C-152.46677177 266.09209837 -165.86662025 256.72045175 -172.25 237.5703125 C-172.35828866 235.76638298 -172.40931843 233.95879419 -172.42840576 232.15171814 C-172.44253006 231.02613495 -172.45665436 229.90055176 -172.47120667 228.74085999 C-172.48167526 227.50500656 -172.49214386 226.26915314 -172.50292969 224.99584961 C-172.51764816 223.69474243 -172.53236664 222.39363525 -172.54753113 221.05310059 C-172.58742617 217.4804452 -172.62077462 213.90775856 -172.65211773 210.33501887 C-172.67185281 208.10016887 -172.69269861 205.86533185 -172.71387482 203.63049507 C-172.77985622 196.63061869 -172.84179852 189.63072346 -172.89805388 182.63076204 C-172.96291448 174.56541892 -173.04101162 166.5003495 -173.13073611 158.43524545 C-173.19937093 152.1931197 -173.25608194 145.95095499 -173.30390286 139.70863539 C-173.33269128 135.98475364 -173.36640303 132.26107729 -173.41255951 128.53736687 C-173.46375994 124.37510995 -173.49021552 120.21303728 -173.51464844 116.05053711 C-173.53321396 114.8288533 -173.55177948 113.60716949 -173.57090759 112.34846497 C-173.59897471 101.0493902 -171.13744108 91.64859141 -164.25 82.5703125 C-156.61146706 75.23398163 -147.77391864 70.06053599 -138.625 64.8828125 C-136.10937987 63.4459124 -133.59703963 62.00337264 -131.0859375 60.55859375 C-130.48442871 60.21362854 -129.88291992 59.86866333 -129.26318359 59.51324463 C-125.15345508 57.14013533 -121.21021905 54.59295211 -117.29345703 51.91772461 C-113.81679141 49.62528524 -110.16176507 47.67297975 -106.5 45.6953125 C-100.02825379 42.14981677 -93.70105479 38.46793621 -87.44140625 34.55859375 C-83.98105976 32.40275976 -80.49667509 30.29149637 -77 28.1953125 C-76.37480469 27.82051758 -75.74960937 27.44572266 -75.10546875 27.05957031 C-69.73805222 23.84948431 -64.34691379 20.68026661 -58.94946289 17.52099609 C-54.99766168 15.20323722 -51.06419598 12.85868365 -47.1484375 10.48046875 C-13.97508279 -9.65639401 -13.97508279 -9.65639401 0 0 Z " fill="#0B708B" transform="translate(339.25,191.4296875)"/>
<path d="M0 0 C11.73669576 4.61348104 22.59877175 11.94397805 33.36376953 18.41601562 C35.12795796 19.47603179 36.89458689 20.53199631 38.66357422 21.58398438 C43.40042062 24.40487314 48.05415956 27.29234017 52.625 30.375 C54.16027344 31.40753906 54.16027344 31.40753906 55.7265625 32.4609375 C56.47679687 32.96882813 57.22703125 33.47671875 58 34 C57.11504409 41.58533639 57.11504409 41.58533639 56.49029541 43.83717346 C55.95439539 46.20117434 55.85898666 48.32259575 55.83886719 50.74584961 C55.82925964 51.68460434 55.8196521 52.62335907 55.80975342 53.59056091 C55.8033786 55.10614342 55.8033786 55.10614342 55.796875 56.65234375 C55.78832489 58.22901573 55.78832489 58.22901573 55.77960205 59.83753967 C55.77015588 62.06591793 55.76361959 64.29431013 55.75976562 66.52270508 C55.7501254 69.8936492 55.71912518 73.26396625 55.6875 76.63476562 C55.57954105 98.13866953 58.6033298 112.31096855 73.47265625 128.72265625 C76.15032184 131.13545229 78.71670851 132.54658359 82 134 C82 134.66 82 135.32 82 136 C82.9075 136.268125 83.815 136.53625 84.75 136.8125 C87.84756278 137.94430178 89.65820814 138.72380013 92 141 C92.49219131 143.52434063 92.49219131 143.52434063 92.48101807 146.59977722 C92.48651672 147.76505447 92.49201538 148.93033173 92.49768066 150.13092041 C92.48329956 151.4105365 92.46891846 152.69015259 92.45410156 154.00854492 C92.45297336 155.36857571 92.4536064 156.72860894 92.45587158 158.08863831 C92.45702077 161.78277055 92.43347905 165.47638486 92.40557575 169.17039657 C92.38059581 173.03010044 92.3782228 176.88981577 92.37347412 180.74958801 C92.36103427 188.05945846 92.32819917 195.36909005 92.28807616 202.67885524 C92.24338972 211.00037723 92.22137931 219.32191054 92.20129442 227.64352262 C92.15946728 244.76248666 92.0890958 261.88121808 92 279 C88.21417502 278.3126412 85.53323146 277.36765932 82.2265625 275.375 C80.87691406 274.56905396 80.87691406 274.56905396 79.5 273.74682617 C78.55125 273.17037354 77.6025 272.5939209 76.625 272 C75.15160156 271.1169519 75.15160156 271.1169519 73.6484375 270.21606445 C70.76144761 268.48420116 67.88013194 266.74323775 65 265 C62.93752823 263.75727412 60.87415465 262.51606676 58.81030273 261.27563477 C57.60611259 260.55182148 56.40249597 259.82705316 55.19946289 259.10131836 C51.18959857 256.68919066 47.13706048 254.36332043 43.0625 252.0625 C35.82022952 247.9486933 28.75913567 243.57309834 21.73583984 239.09716797 C20.25803121 238.16309315 18.76524292 237.25278649 17.26953125 236.34765625 C6.53944811 229.68059943 -0.02699231 219.91902308 -4 208 C-4.09796756 205.34090446 -4.13906611 202.70808214 -4.13371277 200.0488739 C-4.13597833 199.22975 -4.13824388 198.41062609 -4.14057809 197.56668025 C-4.14692598 194.81226157 -4.14608822 192.057892 -4.14526367 189.3034668 C-4.1482547 187.33248836 -4.15165709 185.36151052 -4.15544128 183.39053345 C-4.16429188 178.02890585 -4.16661986 172.6672942 -4.16725707 167.30566001 C-4.16820554 162.83248246 -4.17188317 158.35930865 -4.17542917 153.88613254 C-4.18357798 143.33302199 -4.18601304 132.77991997 -4.18530273 122.22680664 C-4.18470202 111.33586489 -4.19525163 100.44497268 -4.2110464 89.55404347 C-4.22411732 80.20874126 -4.22948681 70.86345524 -4.22884732 61.51814395 C-4.22859218 55.93443329 -4.23145247 50.35076662 -4.24202538 44.76706505 C-4.25169863 39.51483436 -4.25179081 34.26268979 -4.24450874 29.01045609 C-4.2434619 27.08274141 -4.2458317 25.1550214 -4.2518692 23.2273159 C-4.25957806 20.59546803 -4.2549516 17.9639184 -4.24723816 15.33207703 C-4.25238172 14.56951983 -4.25752529 13.80696263 -4.26282471 13.02129763 C-4.23451972 8.64974704 -3.75557694 5.02166539 -2 1 C-1.34 0.67 -0.68 0.34 0 0 Z " fill="#22993A" transform="translate(56,148)"/>
<path d="M0 0 C4.11199067 3.55126467 6.30691038 6.63778283 7.16796875 11.95703125 C7.52508906 18.85813986 6.23274541 24.05112134 1.75 29.375 C-1.64787102 32.45255416 -5.39114477 34.92172941 -9.25 37.375 C-9.92369629 37.80651367 -10.59739258 38.23802734 -11.29150391 38.68261719 C-15.21578889 41.18948428 -19.15608677 43.66961512 -23.10546875 46.13671875 C-29.28842494 50.00953332 -35.39169989 54.00310299 -41.48803711 58.01049805 C-45.99948038 60.96316405 -50.55108171 63.73185846 -55.25 66.375 C-62.35016287 70.65805845 -69.38203763 75.05323287 -76.36328125 79.52734375 C-78.48057252 80.88252476 -80.60269746 82.22790385 -82.73046875 83.56640625 C-99.90652959 94.1265243 -99.90652959 94.1265243 -109.25 111.375 C-109.54228777 114.76291693 -109.54228777 114.76291693 -109.49050903 118.39852905 C-109.49307231 119.42302341 -109.49307231 119.42302341 -109.49568737 120.46821463 C-109.49896662 122.74372964 -109.48800468 125.01894601 -109.47705078 127.29443359 C-109.47648633 128.93076572 -109.47680389 130.56709835 -109.47793579 132.20343018 C-109.47850897 136.63686233 -109.46676022 141.07018599 -109.45278788 145.50359297 C-109.44027479 150.14005449 -109.43910956 154.77651858 -109.43673706 159.41299438 C-109.430524 168.18889522 -109.41411551 176.96474615 -109.39403808 185.74062502 C-109.3716737 195.7333119 -109.36068429 205.72600117 -109.35064721 215.71870685 C-109.32974914 236.2708324 -109.29457652 256.82291306 -109.25 277.375 C-113.07807823 276.68503821 -115.68364816 275.73627229 -118.98046875 273.64453125 C-119.86669922 273.08830078 -120.75292969 272.53207031 -121.66601562 271.95898438 C-122.58060547 271.37439453 -123.49519531 270.78980469 -124.4375 270.1875 C-126.24305638 269.04749068 -128.04904476 267.90816529 -129.85546875 266.76953125 C-130.74500244 266.20621094 -131.63453613 265.64289063 -132.55102539 265.0625 C-136.02921106 262.88780806 -139.54995871 260.78927192 -143.08251953 258.7043457 C-153.02006631 252.60951103 -158.37447549 243.34447944 -161.61079597 232.27462387 C-162.7642105 227.04238479 -162.67475051 221.83369167 -162.65405273 216.49658203 C-162.66091599 215.24643311 -162.66777924 213.99628418 -162.67485046 212.70825195 C-162.68992794 209.30713369 -162.69163676 205.90656763 -162.68590808 202.5054574 C-162.68279794 199.65291139 -162.68892891 196.80041396 -162.69494683 193.9478749 C-162.70895076 187.21113908 -162.70746579 180.47453017 -162.69604492 173.73779297 C-162.68457176 166.81784717 -162.69863506 159.89828932 -162.7254414 152.97839463 C-162.74768712 147.00944983 -162.75421581 141.04062601 -162.74836498 135.07164276 C-162.7450148 131.51885991 -162.74727956 127.9663255 -162.76461601 124.41357803 C-162.78313362 120.44630307 -162.76880717 116.47949531 -162.75170898 112.51220703 C-162.76137695 111.35546478 -162.77104492 110.19872253 -162.78100586 109.00692749 C-162.67873804 97.61053285 -160.06672273 87.97243234 -152.00195312 79.71972656 C-146.79345887 75.28197117 -140.96188095 72.04355134 -135 68.75 C-133.75291834 68.04601802 -132.50681905 67.3402929 -131.26171875 66.6328125 C-129.40747025 65.57926464 -127.55276417 64.52675166 -125.69419861 63.48083496 C-120.47221598 60.5348012 -115.37573887 57.4149125 -110.28271484 54.25048828 C-105.79131095 51.47291907 -101.24145868 48.79829912 -96.6875 46.125 C-89.58814028 41.94304386 -82.50031288 37.7434124 -75.4375 33.5 C-74.63586426 33.01837402 -73.83422852 32.53674805 -73.00830078 32.04052734 C-70.42190443 30.48584343 -67.8359295 28.93046029 -65.25 27.375 C-61.02152021 24.83218876 -56.79232749 22.29056877 -52.5625 19.75 C-50.97888672 18.79843018 -50.97888672 18.79843018 -49.36328125 17.82763672 C-42.39548742 13.64630963 -35.40785652 9.50099614 -28.37426758 5.43115234 C-25.83197151 3.95041319 -23.37740817 2.47207289 -21.03515625 0.6875 C-14.77799464 -3.91295143 -6.60966582 -3.30483291 0 0 Z " fill="#13616A" transform="translate(334.25,194.625)"/>
<path d="M0 0 C0.10007178 4.35581651 0.17202448 8.71099593 0.21972656 13.06762695 C0.23964487 14.54463378 0.26679007 16.02156384 0.30175781 17.49829102 C0.69639233 34.61266136 -4.09041942 45.76454578 -15.875 58.3125 C-20.14772023 62.38725636 -24.84429535 65.1735569 -30 68 C-31.92634445 69.07425722 -33.85027077 70.15273038 -35.7734375 71.23266602 C-37.07184394 71.96006589 -38.37240729 72.68363862 -39.67578125 73.40209961 C-43.88923372 75.74248682 -48.00279689 78.21773455 -52.1015625 80.75390625 C-59.18909133 85.13876776 -66.36500756 89.36135186 -73.5625 93.5625 C-74.79890575 94.28567459 -76.03523403 95.00898166 -77.27148438 95.73242188 C-83.96423934 99.64767106 -90.66246628 103.5535003 -97.36376953 107.45410156 C-100.02425552 109.01422355 -102.67043778 110.59640942 -105.3125 112.1875 C-116.65449062 119 -116.65449062 119 -119 119 C-119 119.66 -119 120.32 -119 121 C-120.72283203 121.94359375 -120.72283203 121.94359375 -122.48046875 122.90625 C-131.17979448 127.69144355 -139.75660416 132.58144936 -148.17041016 137.85498047 C-152.00014391 140.25175807 -155.84224543 142.62822815 -159.6875 145 C-160.47898437 145.49363037 -161.27046875 145.98726074 -162.0859375 146.49584961 C-162.82457031 146.95096924 -163.56320312 147.40608887 -164.32421875 147.875 C-164.98510498 148.28492188 -165.64599121 148.69484375 -166.3269043 149.1171875 C-168 150 -168 150 -170 150 C-170 134.82 -170 119.64 -170 104 C-167.03 102.35 -164.06 100.7 -161 99 C-157.67711241 97.00372847 -154.36574151 94.99293134 -151.06835938 92.95507812 C-146.21607143 90 -146.21607143 90 -144 90 C-144 89.34 -144 88.68 -144 88 C-141.46871192 86.3032025 -138.93557977 84.73187933 -136.3125 83.1875 C-134.65060644 82.19082952 -132.98916598 81.19340323 -131.328125 80.1953125 C-130.45349609 79.67227539 -129.57886719 79.14923828 -128.67773438 78.61035156 C-124.28185546 75.96673218 -119.9218239 73.26584038 -115.5625 70.5625 C-114.68408447 70.01827393 -113.80566895 69.47404785 -112.90063477 68.91333008 C-104.67640111 63.81136395 -96.47947297 58.66712125 -88.31396484 53.47167969 C-86.73988882 52.47056866 -85.16464782 51.47128752 -83.58837891 50.47363281 C-81.24291752 48.98784165 -78.90212661 47.49495779 -76.5625 46 C-75.85834961 45.5551123 -75.15419922 45.11022461 -74.42871094 44.65185547 C-71.71816491 42.910313 -69.34706529 41.37568166 -67.15234375 39 C-64.33479604 36.38187944 -61.23440563 35.06242326 -57.78320312 33.40625 C-52.90159425 30.93975289 -48.35542685 27.941457 -43.75 25 C-33.03481082 18.227089 -22.20293152 11.68056242 -11.24560547 5.30712891 C-9.79299762 4.46159048 -8.34383946 3.6100854 -6.89892578 2.75146484 C-2.22155607 0 -2.22155607 0 0 0 Z " fill="#D69E12" transform="translate(421,207)"/>
<path d="M0 0 C2.51279974 1.50305506 4.87957786 3.09669259 7.234375 4.8359375 C7.82476562 5.26519531 8.41515625 5.69445312 9.0234375 6.13671875 C10.13942869 6.94858912 11.25397289 7.76245162 12.3671875 8.578125 C14.52488148 10.03163433 16.74978151 11.23907926 19.046875 12.4609375 C24.82891118 15.54889143 30.39148842 18.94057619 35.97021484 22.37646484 C40.98432935 25.46343159 46.01767667 28.51456132 51.07324219 31.53320312 C53.6252356 33.05806954 56.17247151 34.59061399 58.71875 36.125 C61.34237369 37.70590145 63.9731227 39.26318559 66.625 40.796875 C77.792929 47.4414808 84.64747971 55.96398159 88.264328 68.36824036 C89.44805912 73.17038999 89.52280861 77.79164548 89.5090332 82.7175293 C89.5166996 84.15099449 89.5166996 84.15099449 89.52452087 85.61341858 C89.53835242 88.75406261 89.53746441 91.89448549 89.53515625 95.03515625 C89.53904774 97.2346047 89.54338334 99.4340524 89.54814148 101.63349915 C89.55559065 106.23900795 89.5553226 110.84444008 89.55004883 115.44995117 C89.54426715 121.32261846 89.56116028 127.19496904 89.5843935 133.06758404 C89.59920159 137.61035466 89.59999275 142.15305035 89.59688377 146.69584084 C89.5973938 148.85935911 89.60257106 151.02288193 89.61269569 153.18637657 C89.75135483 186.96875291 89.75135483 186.96875291 78.859375 198.30859375 C77.993125 199.14261719 77.126875 199.97664062 76.234375 200.8359375 C75.47898437 201.64933594 74.72359375 202.46273437 73.9453125 203.30078125 C69.07915173 208.45175076 64.55098609 212.12016954 58.21875 215.27734375 C54.73883005 217.0947365 51.50978464 219.17824529 48.234375 221.3359375 C43.30979822 224.55720727 38.32634858 227.49354143 33.125 230.25390625 C29.70560574 232.12533149 26.37862597 234.12634112 23.046875 236.1484375 C17.78950815 239.33673707 12.48263226 242.40970839 7.109375 245.3984375 C1.18820892 248.69696719 -4.60423332 252.1555631 -10.359375 255.73828125 C-14.27253271 258.16309127 -18.2347982 260.5028251 -22.203125 262.8359375 C-22.92749756 263.26197266 -23.65187012 263.68800781 -24.39819336 264.12695312 C-27.70549145 266.06539419 -31.01948957 267.98840615 -34.36328125 269.86328125 C-41.45353018 273.84391469 -48.27576405 278.07233525 -55.06689453 282.53857422 C-62.83845251 287.60988986 -70.87675674 292.20439266 -78.95068359 296.77368164 C-80.59226225 297.73447109 -82.18300129 298.78085502 -83.765625 299.8359375 C-90.33166274 299.26989976 -90.33166274 299.26989976 -91.765625 297.8359375 C-91.88507575 296.23126366 -91.93574508 294.62140394 -91.95849609 293.01245117 C-91.97455902 291.98435837 -91.99062195 290.95626556 -92.00717163 289.89701843 C-92.05145074 285.18582674 -92.09269035 280.47477869 -92.11572266 275.76342773 C-92.13228909 273.2753769 -92.15958776 270.78737379 -92.19775391 268.29956055 C-92.25240118 264.72159 -92.27437949 261.14473742 -92.2890625 257.56640625 C-92.31173187 256.45275192 -92.33440125 255.3390976 -92.35775757 254.19169617 C-92.33656725 246.47740826 -92.33656725 246.47740826 -89.46118164 243.24682617 C-88.57164795 242.78123291 -87.68211426 242.31563965 -86.765625 241.8359375 C-86.14824463 241.42617676 -85.53086426 241.01641602 -84.89477539 240.59423828 C-84.30688232 240.24345215 -83.71898926 239.89266602 -83.11328125 239.53125 C-82.09016846 238.91491699 -82.09016846 238.91491699 -81.04638672 238.28613281 C-79.94834717 237.63016113 -79.94834717 237.63016113 -78.828125 236.9609375 C-71.87310705 232.75903687 -64.98623048 228.46375509 -58.140625 224.0859375 C-49.1783701 218.35775631 -40.1761602 212.69688036 -31.14794922 207.07324219 C-26.45967213 204.15145681 -21.78317496 201.21400107 -17.12890625 198.23828125 C-13.07331493 195.6510127 -8.98200264 193.13667373 -4.85473633 190.66577148 C8.2601616 182.78873443 20.05906473 175.51861207 24.7265625 160.0390625 C27.67604424 147.24284941 27.55657566 133.72822821 20.65625 122.19921875 C13.91919152 113.0192179 6.31738394 109.24697804 -4.765625 106.8359375 C-18.35709167 105.20713324 -28.5126548 110.99573725 -39.765625 117.8359375 C-40.50506348 118.28098633 -41.24450195 118.72603516 -42.00634766 119.18457031 C-52.47968602 125.46956443 -52.47968602 125.46956443 -62.703125 132.1484375 C-65.62116039 134.13494621 -68.58790002 135.86260972 -71.703125 137.5234375 C-77.40414415 140.57135078 -82.8830003 143.92864075 -88.38330078 147.31958008 C-94.40561475 151.02443258 -100.48040237 154.63179267 -106.578125 158.2109375 C-114.81574907 163.05063157 -122.95504527 168.02869363 -131.05932617 173.08789062 C-136.93971492 176.74418296 -142.88565276 180.26358337 -148.890625 183.7109375 C-150.45066695 184.61302861 -152.01056899 185.51536172 -153.5703125 186.41796875 C-156.0863314 187.87333513 -158.60967694 189.30669626 -161.1484375 190.72265625 C-167.93543407 194.68944307 -171.69366938 199.15838146 -175.765625 205.8359375 C-178.81693187 210.60360449 -178.81693187 210.60360449 -182.828125 211.5859375 C-190.39259461 210.98532511 -197.17287028 204.80108996 -202.140625 199.5234375 C-210.08388946 189.93617774 -213.09925842 179.50313553 -213.03125 167.21484375 C-213.03316345 166.43004135 -213.0350769 165.64523895 -213.03704834 164.83665466 C-213.03839846 163.1904976 -213.03478484 161.54432946 -213.02636719 159.89819336 C-213.0156652 157.40779178 -213.0262951 154.91811377 -213.0390625 152.42773438 C-213.06367811 127.18900106 -213.06367811 127.18900106 -204.2109375 118.26953125 C-202.77257848 117.07089873 -201.27130317 115.94883006 -199.765625 114.8359375 C-199.12753906 114.1553125 -199.12753906 114.1553125 -198.4765625 113.4609375 C-196.06652278 111.17195 -193.31406908 109.47872099 -190.515625 107.7109375 C-189.90082275 107.31914307 -189.28602051 106.92734863 -188.65258789 106.52368164 C-182.96633969 102.92059281 -177.19710575 99.46031704 -171.4140625 96.015625 C-156.57783907 87.17320462 -141.99676343 77.89187385 -127.40478516 68.65380859 C-122.86369337 65.78206183 -118.31259273 62.92732394 -113.75 60.08984375 C-104.50662836 54.3399613 -95.289177 48.58977613 -86.28417969 42.47216797 C-80.39035747 38.50738227 -74.28029245 34.91907091 -68.17138672 31.29833984 C-62.44285974 27.88706828 -56.87333112 24.30793421 -51.35864258 20.56347656 C-44.31105873 15.8032748 -37.03385224 11.42245175 -29.75097656 7.03417969 C-27.99941521 5.97703961 -26.25319078 4.91106766 -24.5078125 3.84375 C-23.62351562 3.30492188 -22.73921875 2.76609375 -21.828125 2.2109375 C-20.73177734 1.54191406 -20.73177734 1.54191406 -19.61328125 0.859375 C-13.78504925 -2.36894801 -6.09050285 -2.56351674 0 0 Z M-29.49023438 13.29931641 C-33.59324435 16.07016885 -37.81462955 18.65465604 -42.015625 21.2734375 C-43.60573874 22.26963048 -45.19437965 23.26817984 -46.78125 24.26953125 C-47.79106934 24.90459595 -47.79106934 24.90459595 -48.82128906 25.55249023 C-50.20314369 26.46464616 -51.55275238 27.4264878 -52.87719727 28.42016602 C-54.97672215 29.99419896 -57.12042201 31.13479687 -59.453125 32.3359375 C-66.0012176 35.85379576 -72.15210759 39.9080022 -78.3671875 43.97265625 C-82.48912641 46.66651469 -86.64841457 49.29534337 -90.828125 51.8984375 C-91.47225342 52.30094727 -92.11638184 52.70345703 -92.7800293 53.11816406 C-96.28272763 55.30336571 -99.7974923 57.46706539 -103.32421875 59.61328125 C-104.06728271 60.06888428 -104.81034668 60.5244873 -105.57592773 60.99389648 C-107.01054885 61.87315976 -108.44875773 62.7466019 -109.89086914 63.61352539 C-111.55015482 64.63377175 -113.16350208 65.72808654 -114.765625 66.8359375 C-114.765625 67.4959375 -114.765625 68.1559375 -114.765625 68.8359375 C-115.62027344 69.08085937 -116.47492188 69.32578125 -117.35546875 69.578125 C-121.04056424 70.93734693 -124.09338737 72.78515855 -127.328125 74.9609375 C-128.57353009 75.77969431 -129.81963891 76.59738157 -131.06640625 77.4140625 C-131.68854004 77.82333984 -132.31067383 78.23261719 -132.95166016 78.65429688 C-139.11717632 82.67059543 -145.45297937 86.42852851 -151.73828125 90.25390625 C-160.64685887 95.6792239 -169.53058953 101.14417855 -178.390625 106.6484375 C-179.90136597 107.58151733 -179.90136597 107.58151733 -181.44262695 108.53344727 C-192.08489335 115.16365297 -202.25275867 121.53466914 -206.765625 133.8359375 C-207.30865149 137.28257881 -207.32771342 140.66038422 -207.296875 144.14453125 C-207.3007019 145.11068863 -207.30452881 146.07684601 -207.30847168 147.07228088 C-207.31118034 149.10524545 -207.30389284 151.13824549 -207.28710938 153.17114258 C-207.2657085 156.26138038 -207.28693503 159.34928736 -207.3125 162.43945312 C-207.30985608 164.42448424 -207.30472978 166.40951392 -207.296875 168.39453125 C-207.30497192 169.30730331 -207.31306885 170.22007538 -207.32141113 171.1605072 C-207.19342941 180.03627488 -203.97964593 186.72590896 -198.765625 193.8359375 C-198.04375 194.8259375 -197.321875 195.8159375 -196.578125 196.8359375 C-193.3380751 200.65132336 -189.17427246 203.50777536 -184.765625 205.8359375 C-183.775625 205.8359375 -182.785625 205.8359375 -181.765625 205.8359375 C-181.23775391 204.74925781 -181.23775391 204.74925781 -180.69921875 203.640625 C-174.72246945 191.93680784 -166.5500065 187.28237268 -155.52392578 180.86279297 C-153.29923793 179.56356538 -151.09438918 178.23279214 -148.890625 176.8984375 C-145.82255096 175.05553397 -142.74313956 173.23301752 -139.65625 171.421875 C-138.5422583 170.76819946 -138.5422583 170.76819946 -137.40576172 170.10131836 C-135.93929478 169.24163808 -134.47221165 168.38300771 -133.00439453 167.52563477 C-129.56139047 165.50816789 -126.14715367 163.45970022 -122.7734375 161.328125 C-118.68017206 158.75310173 -114.49051396 156.37450997 -110.265625 154.0234375 C-109.53859375 153.61673828 -108.8115625 153.21003906 -108.0625 152.79101562 C-106.29786669 151.80421411 -104.53188991 150.81981565 -102.765625 149.8359375 C-102.765625 149.1759375 -102.765625 148.5159375 -102.765625 147.8359375 C-102.04117188 147.55878906 -101.31671875 147.28164062 -100.5703125 146.99609375 C-86.86090542 141.32521088 -74.1557784 132.3303365 -61.578125 124.5234375 C-57.9756326 122.29155495 -54.3711669 120.06288985 -50.765625 117.8359375 C-49.86457031 117.27841797 -48.96351563 116.72089844 -48.03515625 116.14648438 C-45.38799624 114.51349605 -42.73413307 112.89198564 -40.078125 111.2734375 C-39.28962158 110.78512451 -38.50111816 110.29681152 -37.6887207 109.79370117 C-28.74697942 104.3772421 -20.8906635 101.09819029 -10.328125 101.2734375 C-8.9522522 101.28552246 -8.9522522 101.28552246 -7.54858398 101.29785156 C-0.39472832 101.50857644 5.17745471 102.88478763 11.234375 106.8359375 C12.348125 107.5165625 13.461875 108.1971875 14.609375 108.8984375 C23.78612532 115.67175321 29.43993521 123.32221764 31.80078125 134.671875 C33.88246286 149.86252457 31.41013739 162.52133377 22.9765625 175.15625 C21.11555221 177.77243693 21.11555221 177.77243693 20.234375 180.8359375 C19.574375 180.8359375 18.914375 180.8359375 18.234375 180.8359375 C17.08409294 182.02456229 15.93431886 183.21368286 14.78710938 184.40527344 C11.86521789 187.09745647 8.39803399 188.95953666 4.984375 190.9609375 C3.35952818 191.93297792 1.73585629 192.90698465 0.11328125 193.8828125 C-0.7051123 194.37458984 -1.52350586 194.86636719 -2.36669922 195.37304688 C-5.98516286 197.57962474 -9.53259851 199.88959793 -13.078125 202.2109375 C-19.40208142 206.33690179 -25.78084604 210.36472692 -32.203125 214.3359375 C-33.07710937 214.87694092 -33.95109375 215.41794434 -34.8515625 215.9753418 C-39.25108233 218.69128058 -43.66422355 221.38142148 -48.1015625 224.03515625 C-49.35948608 224.79119141 -49.35948608 224.79119141 -50.64282227 225.5625 C-52.23582796 226.51814371 -53.83254799 227.46762974 -55.43334961 228.41015625 C-57.24439077 229.4979832 -59.01077669 230.65961061 -60.765625 231.8359375 C-60.765625 232.4959375 -60.765625 233.1559375 -60.765625 233.8359375 C-61.62285156 234.08601562 -62.48007812 234.33609375 -63.36328125 234.59375 C-67.00562354 235.92356039 -69.93474744 237.63141756 -73.203125 239.7109375 C-77.67889883 242.54397846 -82.15656339 245.20218801 -86.765625 247.8359375 C-86.765625 263.0159375 -86.765625 278.1959375 -86.765625 293.8359375 C-83.28632318 292.44421677 -80.55694999 291.23125399 -77.4296875 289.33203125 C-76.62007568 288.84299316 -75.81046387 288.35395508 -74.97631836 287.85009766 C-74.12303955 287.3297998 -73.26976074 286.80950195 -72.390625 286.2734375 C-71.5044751 285.7376709 -70.6183252 285.2019043 -69.70532227 284.64990234 C-67.0568112 283.04843264 -64.41096646 281.44263597 -61.765625 279.8359375 C-53.19929856 274.64188384 -44.62071069 269.5304216 -35.765625 264.8359375 C-35.765625 264.1759375 -35.765625 263.5159375 -35.765625 262.8359375 C-35.07082031 262.57425781 -34.37601563 262.31257813 -33.66015625 262.04296875 C-30.47312454 260.71396362 -27.49124777 259.16438764 -24.453125 257.5234375 C-22.85017578 256.66298828 -22.85017578 256.66298828 -21.21484375 255.78515625 C-18.8050423 254.42333187 -16.47423114 253.04137453 -14.140625 251.5625 C-8.55813728 248.03675347 -2.80750741 244.80266032 2.921875 241.5234375 C10.79001005 237.00654263 18.6225009 232.45569519 26.3203125 227.65234375 C29.71185512 225.53831249 33.12386928 223.46102913 36.546875 221.3984375 C37.16804199 221.02283691 37.78920898 220.64723633 38.42919922 220.26025391 C41.71185622 218.29099734 45.01801991 216.39339074 48.390625 214.58203125 C64.18325487 206.08157617 77.07932051 194.95680154 82.81665039 177.44287109 C85.26598059 168.1890817 84.68588116 158.49905771 84.66796875 149 C84.67253786 146.87209915 84.67784559 144.74419977 84.68385315 142.61630249 C84.69275547 138.16992169 84.69039425 133.72372078 84.68041992 129.27734375 C84.6689383 123.60979399 84.68914461 117.94286805 84.71833706 112.27540016 C84.73677906 107.88445156 84.73639062 103.49365023 84.73069954 99.10267258 C84.73054728 97.01451111 84.73651175 94.92633905 84.74899101 92.83821487 C85.10686995 72.75481851 85.10686995 72.75481851 76.296875 55.2109375 C75.64847656 54.43492188 75.00007813 53.65890625 74.33203125 52.859375 C72.07869274 50.68576355 69.97347089 49.35249906 67.234375 47.8359375 C65.92410623 47.0705687 64.61567525 46.30204933 63.30859375 45.53125 C61.11848007 44.24759455 58.9280305 42.96453508 56.73632812 41.68359375 C53.16752004 39.59031977 49.62521386 37.46805464 46.125 35.26171875 C42.57264249 33.02623247 38.95886825 30.94965709 35.296875 28.8984375 C30.53341335 26.21064239 25.95007343 23.36062844 21.44140625 20.265625 C18.06160096 18.076229 14.50088913 16.24445836 10.94921875 14.3515625 C7.56548875 12.46251611 4.38696835 10.34390895 1.20703125 8.1328125 C-3.36607571 5.12633426 -6.96733929 4.03200553 -12.46875 4.1484375 C-18.95333007 5.50067221 -24.1050862 9.5985583 -29.49023438 13.29931641 Z " fill="#FEFCF7" transform="translate(337.765625,63.1640625)"/>
<path d="M0 0 C1.75 1.5703125 1.75 1.5703125 2.75 4.5703125 C3.41 4.5703125 4.07 4.5703125 4.75 4.5703125 C7.95303913 11.64369057 9.20536348 18.39842759 7.05859375 26.02734375 C2.8087477 36.46525016 -4.65893798 41.51253927 -14.02636719 47.21484375 C-16.50721065 48.72710142 -18.9767183 50.25689377 -21.4453125 51.7890625 C-25.09270235 54.0520035 -28.74242993 56.31107699 -32.39453125 58.56640625 C-39.53605945 62.98074892 -46.61667304 67.46353715 -53.58032227 72.15356445 C-59.80087778 76.33936621 -66.08699894 80.34233446 -72.53613281 84.16650391 C-77.30838908 86.99714361 -82.04050344 89.88640194 -86.75 92.8203125 C-87.39638428 93.22056641 -88.04276855 93.62082031 -88.70874023 94.03320312 C-90.56781543 95.19473385 -92.41218115 96.37545947 -94.25 97.5703125 C-94.8785791 97.97556152 -95.5071582 98.38081055 -96.15478516 98.79833984 C-99.94145681 101.34972836 -102.37194209 103.62487087 -104.625 107.6953125 C-105.10710937 108.54351562 -105.58921875 109.39171875 -106.0859375 110.265625 C-108.42837393 114.9033347 -108.42012162 119.09151824 -108.45532227 124.17260742 C-108.46522186 125.05086685 -108.47512146 125.92912628 -108.48532104 126.83399963 C-108.51693119 129.739566 -108.54169161 132.64514872 -108.56640625 135.55078125 C-108.58697619 137.56432014 -108.60797268 139.57785472 -108.62937927 141.59138489 C-108.68459577 146.89318347 -108.73400695 152.19502099 -108.78222656 157.49688721 C-108.83244463 162.90616322 -108.88812911 168.31538263 -108.94335938 173.72460938 C-109.0509358 184.3397954 -109.15238196 194.95503056 -109.25 205.5703125 C-108.13252632 204.8561895 -108.13252632 204.8561895 -106.99247742 204.12763977 C-106.00971329 203.5006871 -105.02694916 202.87373444 -104.0144043 202.2277832 C-103.04254684 201.6073262 -102.07068939 200.9868692 -101.06938171 200.34761047 C-97.44815841 198.06484301 -93.76795186 195.89989189 -90.0625 193.7578125 C-82.35573367 189.26169521 -74.77908276 184.58139257 -67.23388672 179.8203125 C-63.91199624 177.72726805 -60.58062562 175.64941802 -57.25 173.5703125 C-53.35079333 171.13625371 -49.45288486 168.70043872 -45.56640625 166.24609375 C-36.44121133 160.49442666 -27.21219992 154.92611794 -17.95678711 149.38671875 C-2.95989755 140.40954078 11.98818091 131.36652414 26.73510742 121.98339844 C33.3900959 117.76326539 40.13146075 113.69537274 46.90307617 109.66552734 C48.07060425 108.97064209 48.07060425 108.97064209 49.26171875 108.26171875 C50.01348389 107.81586426 50.76524902 107.37000977 51.53979492 106.91064453 C53.73479126 105.57953552 55.88031012 104.18599004 58.03125 102.78515625 C61.95261973 100.34250311 64.70990791 99.48763057 69.36328125 99.6953125 C81.46900149 102.82297263 97.53410856 113.09043776 105.75 122.5703125 C105.75 123.2303125 105.75 123.8903125 105.75 124.5703125 C106.74 124.9003125 107.73 125.2303125 108.75 125.5703125 C115.28371754 133.88929934 114.88460411 145.1443572 114.07080078 155.16210938 C112.6983224 165.46509776 105.64390839 173.32978977 97.75 179.5703125 C93.08029913 182.73307358 88.14678608 185.4459738 83.22021484 188.18261719 C78.70799818 190.71745011 74.26446536 193.3690661 69.8125 196.0078125 C68.41366577 196.83369873 68.41366577 196.83369873 66.98657227 197.67626953 C60.36227243 201.59311656 53.78619353 205.58324808 47.23120117 209.61474609 C41.53990474 213.10816084 35.79131495 216.49526403 30.02246094 219.85864258 C24.36206298 223.1737728 18.79664379 226.62791567 13.27685547 230.17211914 C9.54279953 232.5455939 5.75826369 234.59286329 1.78393555 236.53369141 C-1.78190334 238.3510665 -5.16189047 240.46410146 -8.5625 242.5703125 C-9.3373877 243.04670166 -10.11227539 243.52309082 -10.91064453 244.01391602 C-17.30091703 247.95404886 -23.64010782 251.97362808 -29.97485352 256.00219727 C-36.7380614 260.28660436 -43.59161432 264.41110993 -50.48974609 268.47436523 C-54.08649781 270.60625403 -57.59035679 272.76282244 -60.96484375 275.234375 C-63.86085717 277.35094996 -66.81084825 278.97317522 -70.0625 280.5078125 C-74.86998926 282.83634609 -79.39903711 285.3975321 -83.8984375 288.2734375 C-91.44635276 292.43607515 -99.74726467 292.7695293 -108.08203125 290.953125 C-115.13845516 288.61820289 -121.16659985 284.72261602 -127.39013672 280.73388672 C-130.12682258 279.02175167 -132.92007669 277.4119538 -135.71411133 275.7956543 C-152.46677177 266.09209837 -165.86662025 256.72045175 -172.25 237.5703125 C-172.35828866 235.76638298 -172.40931843 233.95879419 -172.42840576 232.15171814 C-172.44253006 231.02613495 -172.45665436 229.90055176 -172.47120667 228.74085999 C-172.48167526 227.50500656 -172.49214386 226.26915314 -172.50292969 224.99584961 C-172.51764816 223.69474243 -172.53236664 222.39363525 -172.54753113 221.05310059 C-172.58742617 217.4804452 -172.62077462 213.90775856 -172.65211773 210.33501887 C-172.67185281 208.10016887 -172.69269861 205.86533185 -172.71387482 203.63049507 C-172.77985622 196.63061869 -172.84179852 189.63072346 -172.89805388 182.63076204 C-172.96291448 174.56541892 -173.04101162 166.5003495 -173.13073611 158.43524545 C-173.19937093 152.1931197 -173.25608194 145.95095499 -173.30390286 139.70863539 C-173.33269128 135.98475364 -173.36640303 132.26107729 -173.41255951 128.53736687 C-173.46375994 124.37510995 -173.49021552 120.21303728 -173.51464844 116.05053711 C-173.53321396 114.8288533 -173.55177948 113.60716949 -173.57090759 112.34846497 C-173.59897471 101.0493902 -171.13744108 91.64859141 -164.25 82.5703125 C-156.61146706 75.23398163 -147.77391864 70.06053599 -138.625 64.8828125 C-136.10937987 63.4459124 -133.59703963 62.00337264 -131.0859375 60.55859375 C-130.48442871 60.21362854 -129.88291992 59.86866333 -129.26318359 59.51324463 C-125.15345508 57.14013533 -121.21021905 54.59295211 -117.29345703 51.91772461 C-113.81679141 49.62528524 -110.16176507 47.67297975 -106.5 45.6953125 C-100.02825379 42.14981677 -93.70105479 38.46793621 -87.44140625 34.55859375 C-83.98105976 32.40275976 -80.49667509 30.29149637 -77 28.1953125 C-76.37480469 27.82051758 -75.74960937 27.44572266 -75.10546875 27.05957031 C-69.73805222 23.84948431 -64.34691379 20.68026661 -58.94946289 17.52099609 C-54.99766168 15.20323722 -51.06419598 12.85868365 -47.1484375 10.48046875 C-13.97508279 -9.65639401 -13.97508279 -9.65639401 0 0 Z M-29.875 6.2890625 C-33.42925705 8.45897467 -36.99186616 10.60866302 -40.58203125 12.71875 C-41.47535156 13.2446875 -42.36867188 13.770625 -43.2890625 14.3125 C-44.20429688 14.85132813 -45.11953125 15.39015625 -46.0625 15.9453125 C-51.98862915 19.43960379 -57.90519411 22.94143698 -63.75 26.5703125 C-70.32423928 30.65028368 -76.99106616 34.56884123 -83.65722656 38.49633789 C-94.02991582 44.61077455 -104.34949578 50.81275333 -114.66430664 57.02416992 C-119.89054799 60.16691118 -125.1356157 63.27569269 -130.39404297 66.36425781 C-134.19120039 68.59834834 -137.97913892 70.84782274 -141.76611328 73.09912109 C-143.78459574 74.29465631 -145.80992906 75.47643066 -147.83984375 76.65234375 C-157.37398639 82.36213184 -163.09404445 88.59400477 -166.45128059 99.25820541 C-167.77535932 104.74885769 -167.79871678 110.0831842 -167.75170898 115.70751953 C-167.75711197 116.9611731 -167.76251495 118.21482666 -167.76808167 119.50646973 C-167.77836331 122.90750856 -167.77096618 126.3075561 -167.75437045 129.70850611 C-167.74039098 133.28857353 -167.74699433 136.86861499 -167.75050354 140.44869995 C-167.75319488 146.45530352 -167.73982097 152.46170602 -167.71655273 158.46826172 C-167.68992542 165.38937931 -167.68820759 172.31016157 -167.6999411 179.23131287 C-167.7107587 185.92263223 -167.70450227 192.61383158 -167.69038582 199.30514145 C-167.68466286 202.13823191 -167.68467928 204.97123348 -167.68945122 207.8043251 C-167.69515533 211.76697508 -167.67580719 215.72929598 -167.65405273 219.69189453 C-167.65855438 220.85268524 -167.66305603 222.01347595 -167.66769409 223.20944214 C-167.55364638 235.76315534 -163.98227908 247.21722899 -155.34375 256.65234375 C-147.95796315 263.00786686 -139.0348918 267.57602949 -130.63671875 272.43359375 C-125.30535351 275.51821585 -120.08991883 278.75679314 -114.90625 282.08203125 C-107.32152199 286.33170974 -98.74649308 286.92270283 -90.25 285.5703125 C-86.46444633 284.12983558 -83.35562964 282.09848078 -80.046875 279.78173828 C-76.31053738 277.26275632 -72.37850822 275.04881458 -68.5 272.7578125 C-62.48078682 269.1534231 -56.49746219 265.49914776 -50.5625 261.7578125 C-42.88686339 256.92224 -35.10875737 252.26336353 -27.32275391 247.6081543 C-21.48376688 244.11518103 -15.65356041 240.60906027 -9.83984375 237.07421875 C-9.22088226 236.69788803 -8.60192078 236.32155731 -7.96420288 235.93382263 C-4.97210489 234.11385116 -1.98113679 232.29204326 1.00878906 230.46850586 C7.34828272 226.60901541 13.72025701 222.81570703 20.13891602 219.08935547 C23.21531932 217.29960499 26.26608192 215.47311359 29.3125 213.6328125 C36.459743 209.32922079 43.63461733 205.07254931 50.8125 200.8203125 C51.39202423 200.47687805 51.97154846 200.1334436 52.56863403 199.77960205 C59.68156966 195.56461132 66.80069649 191.36035748 73.92871094 187.17089844 C76.65942526 185.56120425 79.38304672 183.94007465 82.10546875 182.31640625 C84.79551591 180.71314891 87.48769551 179.16800823 90.23828125 177.66796875 C98.48243928 173.00426109 104.30062732 165.83726213 107.75 157.01171875 C108.29393871 154.83218655 108.60044527 152.80936041 108.75 150.5703125 C108.83314453 149.55710937 108.83314453 149.55710937 108.91796875 148.5234375 C109.32458966 138.53218078 105.6869739 130.64560915 99 123.3828125 C96.04132119 120.58263434 92.77621229 118.73962451 89.18359375 116.85546875 C86.58978778 115.48570604 84.07763267 114.0168921 81.5625 112.5078125 C80.7271875 112.00894531 79.891875 111.51007813 79.03125 110.99609375 C76.75 109.5703125 76.75 109.5703125 73.5625 107.1953125 C69.76790918 105.00288225 68.09682283 104.7864592 63.75 105.5703125 C60.98748974 107.05954849 58.43463002 108.74236121 55.83984375 110.5078125 C52.56212852 112.6957185 49.18708232 114.64943867 45.75 116.5703125 C40.63077739 119.45871604 35.63311355 122.48708466 30.6953125 125.67578125 C27.23353493 127.90252146 23.743709 130.08165534 20.25 132.2578125 C15.85435932 134.9964605 11.46631539 137.74580388 7.09765625 140.52734375 C-1.79908075 146.18873777 -10.75707177 151.69692582 -19.8671875 157.0078125 C-38.22068168 167.71053348 -56.24533284 178.9346623 -74.12109375 190.4140625 C-75.07113281 191.0225 -76.02117187 191.6309375 -77 192.2578125 C-77.84046875 192.79792969 -78.6809375 193.33804688 -79.546875 193.89453125 C-82.11905747 195.4891357 -84.73458862 196.98732279 -87.3671875 198.47924805 C-90.75682183 200.44349543 -94.06135707 202.54377674 -97.375 204.6328125 C-99.40376956 205.90885167 -101.43313562 207.18381898 -103.46582031 208.45361328 C-104.97909153 209.40075375 -106.48631833 210.35754084 -107.9921875 211.31640625 C-110.1306107 212.50400806 -111.88710062 213.03436198 -114.25 213.5703125 C-114.23510287 200.44367737 -114.19340874 187.31742314 -114.11790943 174.19098854 C-114.08368168 168.09521226 -114.05853593 161.9996855 -114.05444336 155.90380859 C-114.0501515 150.0161762 -114.02161416 144.12910629 -113.97656822 138.24164963 C-113.96362174 136.0003322 -113.95927537 133.75894736 -113.96384621 131.5175972 C-113.96877227 128.36740323 -113.94256925 125.21884057 -113.90942383 122.06884766 C-113.91804947 121.15102509 -113.92667511 120.23320251 -113.93556213 119.28756714 C-113.80670379 111.93754845 -111.65635663 105.43951436 -106.72889423 99.84252357 C-101.59085857 95.00079735 -95.07225424 91.48613418 -89.10839844 87.74365234 C-87.3158822 86.61190865 -85.53491338 85.4643623 -83.7578125 84.30859375 C-77.08710453 79.97168871 -70.3412633 75.79797855 -63.50195312 71.73217773 C-59.47845127 69.33205587 -55.56497399 66.82372024 -51.69140625 64.19140625 C-48.58406559 62.12813205 -45.41844914 60.1626632 -42.25 58.1953125 C-35.39079596 53.92726969 -28.56076637 49.61394095 -21.74926758 45.27020264 C-20.08996852 44.21281677 -18.42878822 43.15838489 -16.76757812 42.10400391 C-15.73697266 41.44577637 -14.70636719 40.78754883 -13.64453125 40.109375 C-12.72518799 39.52365723 -11.80584473 38.93793945 -10.85864258 38.33447266 C-4.77974146 34.22346288 -0.85359291 30.50264323 1.75 23.5703125 C2.91035223 17.55206774 2.37227479 12.84402559 -0.8125 7.5703125 C-4.40158246 2.83847973 -7.73236831 1.12572803 -13.625 0.1953125 C-19.6028431 1.04929009 -24.74567261 3.12697299 -29.875 6.2890625 Z " fill="#F7FAFA" transform="translate(339.25,191.4296875)"/>
<path d="M0 0 C0.9075 -0.02449219 1.815 -0.04898437 2.75 -0.07421875 C9.04971545 -0.10145095 13.29709434 1.0468599 18.625 4.375 C19.69621094 5.02597656 20.76742187 5.67695313 21.87109375 6.34765625 C22.92425781 7.03730469 23.97742188 7.72695313 25.0625 8.4375 C26.28122994 9.23180161 27.4999809 10.02607098 28.71875 10.8203125 C29.67007813 11.44341309 29.67007813 11.44341309 30.640625 12.07910156 C33.39014307 13.87467758 36.15232429 15.6503267 38.91455078 17.42626953 C41.06105437 18.81156703 43.19842825 20.2102514 45.3359375 21.609375 C48.20120982 23.47763212 51.09883009 25.26794354 54.0390625 27.015625 C55.08622437 27.65866577 55.08622437 27.65866577 56.15454102 28.31469727 C57.47441556 29.12481841 58.8079135 29.91329563 60.15600586 30.67553711 C61.94140625 31.79296875 61.94140625 31.79296875 64.625 34.375 C65.1688798 37.24671231 64.94618389 39.42197917 64.625 42.375 C62.97951172 43.27992187 62.97951172 43.27992187 61.30078125 44.203125 C59.84621872 45.0101726 58.39179917 45.81747792 56.9375 46.625 C56.21626953 47.02074219 55.49503906 47.41648438 54.75195312 47.82421875 C50.72919809 50.06520558 47.18921908 52.43870543 43.625 55.375 C41.78949112 56.55048934 39.93328936 57.69401209 38.0625 58.8125 C32.27078333 62.31334267 26.59796301 65.97880849 20.9375 69.6875 C13.93213124 74.26684668 6.86932405 78.72352982 -0.28808594 83.06079102 C-6.8301632 87.02826741 -13.32562872 91.06795678 -19.8125 95.125 C-20.79508789 95.73907715 -21.77767578 96.3531543 -22.79003906 96.98583984 C-27.58146552 99.98472623 -32.36118999 103.00038788 -37.125 106.04296875 C-41.35814068 108.74108092 -45.62240537 111.37294121 -49.9375 113.9375 C-50.89861694 114.51189819 -50.89861694 114.51189819 -51.87915039 115.09790039 C-54.58115925 116.71244499 -57.28601122 118.32213801 -59.9921875 119.9296875 C-64.95449532 122.88702246 -69.8593565 125.92630828 -74.75 129 C-80.97541601 132.91070402 -87.2528467 136.72682495 -93.5625 140.5 C-119.18971056 154.30920616 -119.18971056 154.30920616 -133.375 178.375 C-133.90219639 182.29980553 -133.96074201 186.15687147 -133.94140625 190.11328125 C-133.94760483 191.19651169 -133.95380341 192.27974213 -133.96018982 193.39579773 C-133.96724715 195.67230336 -133.96418616 197.94886105 -133.95141602 200.2253418 C-133.93757519 203.66879452 -133.97165783 207.10951113 -134.00976562 210.55273438 C-134.06847077 227.20525147 -132.13979203 240.91334428 -121.375 254.375 C-116.31725465 259.42111835 -109.54355922 262.75755125 -103.390625 266.30517578 C-98.48050102 269.16399797 -98.48050102 269.16399797 -97.375 271.375 C-97.27491342 273.26864097 -97.23989892 275.16584193 -97.23455811 277.06211853 C-97.22884796 278.27217056 -97.22313782 279.4822226 -97.21725464 280.72894287 C-97.21600924 282.07702626 -97.21488415 283.42510977 -97.21386719 284.77319336 C-97.20923993 286.1873233 -97.20421539 287.60145199 -97.19882202 289.01557922 C-97.18568865 292.86264649 -97.17925145 296.7096963 -97.17481136 300.55678248 C-97.17188265 302.95857336 -97.16777826 305.36035944 -97.16330719 307.7621479 C-97.14963089 315.27195652 -97.13996442 322.78175421 -97.1361053 330.29157442 C-97.13162157 338.96986068 -97.11405972 347.64798966 -97.0851047 356.32622808 C-97.0635158 363.02859858 -97.05340255 369.73092473 -97.05206418 376.43332964 C-97.0510143 380.43919035 -97.04506778 384.44490326 -97.02724457 388.45072746 C-97.01081156 392.21738249 -97.00858492 395.98377784 -97.01738358 399.75045586 C-97.01815648 401.13439121 -97.01377801 402.51834026 -97.00392532 403.90224075 C-96.99128205 405.78841778 -96.99884645 407.67469831 -97.00750732 409.56089783 C-97.00530748 411.14571158 -97.00530748 411.14571158 -97.0030632 412.76254177 C-97.375 415.375 -97.375 415.375 -98.70265579 417.23447514 C-100.375 418.375 -100.375 418.375 -103.5 418.4375 C-107.6361413 417.64142259 -110.57277217 415.43356121 -113.9609375 413.03125 C-116.32957595 411.40616472 -118.71566832 410.03705123 -121.25 408.6875 C-135.79607829 400.89064086 -149.89010021 392.29744866 -163.95703125 383.67578125 C-167.24876259 381.66112882 -170.55163133 379.67248511 -173.88671875 377.73046875 C-186.7863156 370.21659359 -199.65552211 360.66093822 -203.90100384 345.4961195 C-208.24195336 326.07049244 -205.53952266 303.14745851 -205.54225707 283.29540992 C-205.5429746 280.36279412 -205.54512169 277.4301828 -205.54775429 274.49756813 C-205.55694882 264.2425978 -205.56109545 253.98764033 -205.56030273 243.73266602 C-205.55969918 234.20524214 -205.57032024 224.67787437 -205.5860464 215.15046471 C-205.59913026 206.92828981 -205.60448648 198.70613328 -205.60384732 190.48394805 C-205.60359317 185.59068008 -205.6064004 180.69746244 -205.61702538 175.80420494 C-205.62672405 171.21489603 -205.62677346 166.62568558 -205.61950874 162.03637314 C-205.61846606 160.35823611 -205.6208069 158.68009287 -205.6268692 157.00196648 C-205.68344842 140.2513261 -203.15015724 126.72568929 -191.38232422 113.88232422 C-184.90273744 107.40273744 -176.69038977 103.22107399 -168.77539062 98.75488281 C-165.37954416 96.80275464 -162.09083536 94.70446284 -158.8125 92.5625 C-157.70648438 91.84449219 -156.60046875 91.12648438 -155.4609375 90.38671875 C-153.93339844 89.39091797 -153.93339844 89.39091797 -152.375 88.375 C-146.43758165 84.53658448 -140.45015057 80.80398448 -134.375 77.1875 C-122.46523379 70.09449015 -110.81980273 62.57289027 -99.1328125 55.12109375 C-95.11682879 52.57839585 -91.07992629 50.06945353 -87.0456543 47.5559082 C-81.17198651 43.88886953 -75.33548187 40.16491025 -69.5 36.4375 C-62.76886148 32.14106551 -56.01264395 27.89554198 -49.1875 23.75 C-42.78337887 19.85830371 -36.40798489 15.92421121 -30.0625 11.9375 C-29.26755127 11.4410498 -28.47260254 10.94459961 -27.65356445 10.43310547 C-24.51859449 8.4565719 -21.55888718 6.52819444 -18.70703125 4.15234375 C-13.02422677 -0.1787719 -6.84729126 0.00964407 0 0 Z M-26.21362305 15.796875 C-30.26637983 18.6627572 -34.41565924 21.28622657 -38.6875 23.8125 C-46.66893867 28.5336108 -54.53009069 33.43086231 -62.375 38.375 C-63.1602002 38.86967773 -63.94540039 39.36435547 -64.75439453 39.87402344 C-72.13684936 44.52694156 -79.51567105 49.18556714 -86.875 53.875 C-104.50503504 65.10397616 -122.15200962 76.32551405 -140.125 87 C-146.08866018 90.54679138 -151.92523373 94.26842205 -157.73242188 98.06542969 C-161.62862305 100.61021377 -165.54463791 103.11434901 -169.5 105.56640625 C-170.35432617 106.0977417 -171.20865234 106.62907715 -172.08886719 107.17651367 C-173.73713512 108.19914429 -175.38866677 109.21653966 -177.04394531 110.2277832 C-181.35177919 112.90705697 -184.94394377 115.58051053 -188.375 119.375 C-188.99503906 120.05820313 -189.61507812 120.74140625 -190.25390625 121.4453125 C-190.80949219 122.12335938 -191.36507812 122.80140625 -191.9375 123.5 C-192.49566406 124.16257812 -193.05382812 124.82515625 -193.62890625 125.5078125 C-200.1532484 136.22116179 -199.95454085 146.75252132 -199.90844727 158.88452148 C-199.91551456 160.84695074 -199.92426297 162.80937455 -199.93455505 164.77178955 C-199.9569675 170.07558386 -199.95412841 175.3790786 -199.94523358 180.6829021 C-199.94010662 185.12113959 -199.94743008 189.55932163 -199.95470566 193.99755341 C-199.97167873 204.47245841 -199.96816483 214.94721764 -199.95141602 225.42211914 C-199.93449477 236.2064464 -199.95033537 246.99036888 -199.9826389 257.77465194 C-200.00938004 267.05569422 -200.01659864 276.33661085 -200.00812382 285.61768776 C-200.00320814 291.15124217 -200.00533666 296.68455311 -200.02591133 302.21807671 C-200.04433969 307.42300295 -200.0382224 312.62734931 -200.01371193 317.83224487 C-200.00872683 319.7348661 -200.01213352 321.63753207 -200.02486038 323.54011726 C-200.12492629 339.79350128 -197.01439007 350.98889661 -185.7109375 363.16796875 C-180.91679022 367.7825995 -175.32324568 370.80027615 -169.52416992 373.95556641 C-164.12487882 376.89971885 -159.07359883 380.13213606 -154.0234375 383.6484375 C-151.41227106 385.42352752 -151.41227106 385.42352752 -148.58886719 386.76123047 C-145.40457014 388.36015204 -142.36483887 390.09763739 -139.3046875 391.921875 C-138.74234406 392.25616516 -138.18000061 392.59045532 -137.60061646 392.93487549 C-135.81590219 393.99629051 -134.03287992 395.06050726 -132.25 396.125 C-131.07824672 396.823121 -129.90637252 397.5210391 -128.734375 398.21875 C-128.15689514 398.56256714 -127.57941528 398.90638428 -126.98443604 399.26062012 C-125.25313604 400.29036303 -123.52067194 401.3181258 -121.78808594 402.34570312 C-119.49960451 403.70635103 -117.21671098 405.07371053 -114.93847656 406.45117188 C-113.86823242 407.09119141 -112.79798828 407.73121094 -111.6953125 408.390625 C-110.26469482 409.25349121 -110.26469482 409.25349121 -108.80517578 410.13378906 C-106.3845177 411.60242783 -106.3845177 411.60242783 -103.375 411.375 C-103.18812324 393.46855837 -103.04704808 375.56236975 -102.96050262 357.65516376 C-102.91924984 349.34049701 -102.86300904 341.02643609 -102.77148438 332.7121582 C-102.69174947 325.46543148 -102.64013538 318.21914347 -102.62229204 310.97199029 C-102.611861 307.13433695 -102.58734988 303.29793866 -102.52915955 299.46068764 C-102.4748185 295.84797077 -102.45811311 292.23702434 -102.47013855 288.62393761 C-102.46689102 286.66731545 -102.42385539 284.71088592 -102.37963867 282.75476074 C-102.24516023 276.58383462 -102.24516023 276.58383462 -105.14674377 271.4509182 C-107.85527734 269.69146152 -110.10380303 268.375 -113.375 268.375 C-113.375 267.715 -113.375 267.055 -113.375 266.375 C-114.8290625 265.694375 -114.8290625 265.694375 -116.3125 265 C-124.62779208 260.22671875 -130.33962002 251.87641316 -134.375 243.375 C-134.931875 242.22 -135.48875 241.065 -136.0625 239.875 C-139.02276516 231.98095957 -139.68347247 224.51705764 -139.67578125 216.12890625 C-139.68006638 215.07775131 -139.6843515 214.02659637 -139.68876648 212.94358826 C-139.69447967 210.73250037 -139.69503241 208.5213937 -139.69067383 206.31030273 C-139.6875124 202.95067945 -139.71101688 199.59193672 -139.73632812 196.23242188 C-139.73860147 194.07291777 -139.73930445 191.91341131 -139.73828125 189.75390625 C-139.747491 188.76193741 -139.75670074 187.76996857 -139.76618958 186.74794006 C-139.68739255 174.71467296 -135.89313341 164.33144607 -127.57421875 155.453125 C-124.15239851 152.38790243 -120.60097987 150.23030824 -116.375 148.375 C-116.375 147.715 -116.375 147.055 -116.375 146.375 C-115.31925781 145.98054688 -115.31925781 145.98054688 -114.2421875 145.578125 C-96.40583189 138.0936597 -79.59707155 125.86745088 -63.47241211 115.2956543 C-56.48528351 110.74074864 -49.29667668 106.54561987 -42.08081055 102.36621094 C-37.51573741 99.71354213 -33.03587796 96.92853094 -28.5625 94.125 C-27.13807702 93.23298319 -25.7135939 92.34106241 -24.2890625 91.44921875 C-23.50950195 90.96114746 -22.72994141 90.47307617 -21.92675781 89.97021484 C-19.1484996 88.23340475 -16.36740029 86.50120436 -13.5859375 84.76953125 C-2.35698754 77.77391701 8.81923868 70.71076348 19.90576172 63.49169922 C25.65796413 59.75546323 31.46369911 56.10287944 37.2734375 52.45703125 C38.11213379 51.92972412 38.95083008 51.40241699 39.81494141 50.85913086 C41.48010158 49.81249051 43.14638458 48.76763369 44.81396484 47.72485352 C49.53720171 44.75485792 54.11821834 41.66470961 58.625 38.375 C55.16553255 34.54105412 51.20127688 31.98597767 46.875 29.25 C46.12782715 28.77208008 45.3806543 28.29416016 44.61083984 27.80175781 C38.84749419 24.12436755 33.05937332 20.48484221 27.24755859 16.88452148 C22.44656637 13.90958876 17.72800215 10.82512127 13.0546875 7.65234375 C-1.20898862 0.15359441 -14.62960719 7.57518697 -26.21362305 15.796875 Z " fill="#F7FBF8" transform="translate(251.375,15.625)"/>
<path d="M0 0 C3.53810636 1.4768435 5.54730325 3.38555134 8 6.3125 C8.99 7.45138672 8.99 7.45138672 10 8.61328125 C17.23051192 20.8571364 16.53152485 33.74617757 16.390625 47.48828125 C16.38315079 49.64445975 16.37746344 51.80064512 16.37347412 53.95683289 C16.35831074 59.5908025 16.31911031 65.22434981 16.2746582 70.8581543 C16.23350352 76.62347707 16.21542023 82.38886908 16.1953125 88.15429688 C16.15260604 99.43638194 16.0844691 110.71815565 16 122 C15.67 122 15.34 122 15 122 C15 113.09 15 104.18 15 95 C7.27911078 99.21139412 -0.28916386 103.47224341 -7.8125 108 C-8.8840332 108.64283936 -9.95556641 109.28567871 -11.05957031 109.94799805 C-19.47148894 115.01952622 -27.7754107 120.24841778 -36.00708008 125.60742188 C-37.27974731 126.43016602 -37.27974731 126.43016602 -38.578125 127.26953125 C-39.68269043 127.99039917 -39.68269043 127.99039917 -40.80957031 128.72583008 C-43.13736148 130.07990298 -45.47971668 131.06001291 -48 132 C-46.91538721 129.7066645 -45.73865015 127.58750808 -44.37890625 125.44140625 C-36.53371052 113.0071928 -34.11989914 99.92586916 -36.62109375 85.390625 C-39.48694205 73.72343813 -45.23226425 64.8913194 -55.453125 58.43359375 C-64.92237287 53.10351098 -73.31603829 52.26511071 -84 52 C-84 51.67 -84 51.34 -84 51 C-83.15695312 50.76023438 -82.31390625 50.52046875 -81.4453125 50.2734375 C-77.57358349 48.84239027 -74.31196794 46.86260026 -70.875 44.625 C-69.45157684 43.71709226 -68.02704554 42.81092013 -66.6015625 41.90625 C-65.85293945 41.43058594 -65.10431641 40.95492187 -64.33300781 40.46484375 C-60.34123503 37.95849835 -56.29631156 35.54196412 -52.25 33.125 C-50.98881348 32.37101929 -50.98881348 32.37101929 -49.70214844 31.60180664 C-47.98687301 30.57678126 -46.27137754 29.55212403 -44.55566406 28.52783203 C-42.05292864 27.0316419 -39.55322458 25.53053269 -37.0546875 24.02734375 C-35.83362305 23.29306152 -35.83362305 23.29306152 -34.58789062 22.54394531 C-32.95342566 21.56080362 -31.31930766 20.57708488 -29.68554688 19.59277344 C-25.09494271 16.83370077 -20.48490761 14.11254315 -15.8515625 11.42578125 C-14.83433105 10.83337646 -13.81709961 10.24097168 -12.76904297 9.63061523 C-10.78472766 8.47670844 -8.79685676 7.32889049 -6.80517578 6.18774414 C-5.91556152 5.66946045 -5.02594727 5.15117676 -4.109375 4.6171875 C-3.31499023 4.15940918 -2.52060547 3.70163086 -1.70214844 3.22998047 C-0.85958496 2.62114014 -0.85958496 2.62114014 0 2 C0 1.34 0 0.68 0 0 Z " fill="#FDCB4A" transform="translate(406,112)"/>
<path d="M0 0 C2.82746737 2.40858331 4.47915768 4.79424371 6.125 8.0625 C10.44866944 16.13424202 16.54880938 23.28492057 25 27 C25 27.66 25 28.32 25 29 C25.9075 29.268125 26.815 29.53625 27.75 29.8125 C30.84756278 30.94430178 32.65820814 31.72380013 35 34 C35.49219131 36.52434063 35.49219131 36.52434063 35.48101807 39.59977722 C35.48651672 40.76505447 35.49201538 41.93033173 35.49768066 43.13092041 C35.48329956 44.4105365 35.46891846 45.69015259 35.45410156 47.00854492 C35.45297336 48.36857571 35.4536064 49.72860894 35.45587158 51.08863831 C35.45702077 54.78277055 35.43347905 58.47638486 35.40557575 62.17039657 C35.38059581 66.03010044 35.3782228 69.88981577 35.37347412 73.74958801 C35.36103427 81.05945846 35.32819917 88.36909005 35.28807616 95.67885524 C35.24338972 104.00037723 35.22137931 112.32191054 35.20129442 120.64352262 C35.15946728 137.76248666 35.0890958 154.88121808 35 172 C29.66051199 171.00851547 25.43654087 169.16640216 21 166 C19.8125 163.625 19.8125 163.625 19 161 C18.13375 160.071875 17.2675 159.14375 16.375 158.1875 C11.99821694 153.34716602 9.52573528 147.3787498 6.734375 141.546875 C5.10103724 138.00767755 5.10103724 138.00767755 3 135 C2.59921974 133.09629377 2.27375738 131.17607869 2 129.25 C1.53645897 126.0217678 1.03419541 123.10030006 -0.01997375 120.00827026 C-1.47701887 114.95738634 -1.27088189 109.88223894 -1.24291992 104.66455078 C-1.24481827 103.54347427 -1.24671661 102.42239777 -1.24867249 101.26734924 C-1.25236552 97.57659831 -1.24170013 93.88604581 -1.23046875 90.1953125 C-1.22927642 87.62938459 -1.2288239 85.06345625 -1.2290802 82.49752808 C-1.22751809 77.12950697 -1.21949049 71.76155725 -1.20581055 66.39355469 C-1.19003953 60.18192693 -1.18481422 53.97036112 -1.1855461 47.7587148 C-1.18615541 41.78021273 -1.18095337 35.80173597 -1.17275429 29.82323837 C-1.16956264 27.27859494 -1.16759906 24.73394968 -1.16686058 22.18930435 C-1.16470517 18.64586476 -1.15597985 15.10250469 -1.14526367 11.55908203 C-1.14571686 10.49833969 -1.14617004 9.43759735 -1.14663696 8.3447113 C-1.14237198 7.38582504 -1.13810699 6.42693878 -1.13371277 5.43899536 C-1.13203692 4.60095934 -1.13036108 3.76292332 -1.12863445 2.89949226 C-1 1 -1 1 0 0 Z " fill="#167F3F" transform="translate(113,255)"/>
<path d="M0 0 C4.52925709 0.90585142 6.13121002 1.48847812 9.75 3.9375 C14.62097972 7.14521835 19.58151931 10.13390311 24.625 13.0625 C29.11256362 15.67320642 33.54439251 18.28798005 37.8125 21.25 C42.01611316 24.14455761 46.50827367 26.27393851 51.08984375 28.50390625 C54.47984536 30.2466856 57.56647046 32.24174407 60.6875 34.421875 C64.32647626 36.90523042 68.1276004 39.1296381 71.91015625 41.38671875 C72.59980469 41.91910156 73.28945313 42.45148438 74 43 C74 43.99 74 44.98 74 46 C72.11425781 47.43530273 72.11425781 47.43530273 69.453125 48.93359375 C68.47311523 49.49385254 67.49310547 50.05411133 66.48339844 50.63134766 C65.41637695 51.22737793 64.34935547 51.8234082 63.25 52.4375 C61.03062179 53.70332627 58.81188075 54.9702703 56.59375 56.23828125 C55.47871094 56.8720166 54.36367188 57.50575195 53.21484375 58.15869141 C48.68819258 60.75134049 44.21505768 63.42805476 39.75 66.125 C38.94933105 66.60718994 38.14866211 67.08937988 37.32373047 67.58618164 C35.70867285 68.55889049 34.09392589 69.53211535 32.47949219 70.50585938 C28.11538694 73.13566679 23.74476616 75.75461381 19.375 78.375 C17.79945092 79.32026543 16.22392912 80.26557631 14.6484375 81.2109375 C9.765625 84.140625 4.8828125 87.0703125 0 90 C0 60.3 0 30.6 0 0 Z " fill="#F8BB05" transform="translate(332,69)"/>
<path d="M0 0 C5.34261404 0.49152049 9.302789 3.36526827 13.75 6.125 C15.54666408 7.22169978 17.34354953 8.31803696 19.140625 9.4140625 C20.09130859 9.99704102 21.04199219 10.58001953 22.02148438 11.18066406 C27.16117273 14.32008682 32.33249785 17.40665647 37.5 20.5 C39.6030078 21.76148002 41.70587317 23.02319752 43.80859375 24.28515625 C44.83581543 24.90148926 45.86303711 25.51782227 46.92138672 26.15283203 C54.61425781 30.76855469 62.30712891 35.38427734 70 40 C67.43885871 42.65315557 64.85181735 44.45545385 61.6875 46.375 C61.14206543 46.70951172 60.59663086 47.04402344 60.03466797 47.38867188 C56.22742431 49.70728429 52.3729911 51.93278763 48.49609375 54.1328125 C47.52905518 54.68791504 46.5620166 55.24301758 45.56567383 55.81494141 C43.64436371 56.9158864 41.71602655 58.0046819 39.7800293 59.07958984 C30.67284187 64.3182303 25.26590733 70.44436758 21 80 C14.06275 78.73722869 7.85403447 73.52140674 3.625 68.0625 C-0.40630053 62.19256098 -4.08418749 55.90240432 -4.17700195 48.65551758 C-4.18983719 47.78063187 -4.20267242 46.90574615 -4.21589661 46.00434875 C-4.22328354 45.06060898 -4.23067047 44.1168692 -4.23828125 43.14453125 C-4.246353 42.16892746 -4.25442474 41.19332367 -4.26274109 40.18815613 C-4.27657531 38.1211423 -4.28730042 36.0541057 -4.29516602 33.98706055 C-4.31233981 30.84183792 -4.3562277 27.69767727 -4.40039062 24.55273438 C-4.41052143 22.54167437 -4.41903632 20.53060546 -4.42578125 18.51953125 C-4.44328934 17.58591263 -4.46079742 16.65229401 -4.47883606 15.69038391 C-4.45812764 9.38600823 -3.21059952 5.43811926 0 0 Z " fill="#CC9E1D" transform="translate(135,189)"/>
<path d="M0 0 C1.50433594 0.01353516 1.50433594 0.01353516 3.0390625 0.02734375 C3.80992187 0.03894531 4.58078125 0.05054687 5.375 0.0625 C5.36014731 12.00621243 5.31865381 23.94950419 5.24290943 35.89299488 C5.20858225 41.43856555 5.18352054 46.98385906 5.17944336 52.52954102 C5.17517271 57.87900886 5.14681254 63.22785086 5.10156822 68.57712364 C5.08855369 70.62047369 5.08429945 72.66389849 5.08884621 74.70728493 C5.09372414 77.56441907 5.06778547 80.41970414 5.03442383 83.27661133 C5.04304947 84.12609344 5.05167511 84.97557556 5.06056213 85.85079956 C5.01423645 88.20906067 5.01423645 88.20906067 4.375 92.0625 C0.96629134 94.95491384 -2.54128465 95.68319544 -6.875 96.5625 C-12.40023808 97.6945 -17.15511074 99.23920358 -22.625 101.0625 C-22.625 72.0225 -22.625 42.9825 -22.625 13.0625 C-23.285 12.7325 -23.945 12.4025 -24.625 12.0625 C-21.83442528 10.24831449 -19.04235711 8.43644066 -16.25 6.625 C-15.4559375 6.10873047 -14.661875 5.59246094 -13.84375 5.06054688 C-13.08320313 4.56748047 -12.32265625 4.07441406 -11.5390625 3.56640625 C-10.8373291 3.11080322 -10.1355957 2.6552002 -9.41259766 2.18579102 C-6.05102769 0.07344693 -3.97137718 -0.0461788 0 0 Z " fill="#CDAF24" transform="translate(327.625,67.9375)"/>
<path d="M0 0 C2.93453261 0.36681658 3.86437246 0.86437246 6 3 C5.67 3.99 5.34 4.98 5 6 C1.535 4.02 1.535 4.02 -2 2 C-1.34 1.34 -0.68 0.68 0 0 Z " fill="#3DAC55" transform="translate(128,414)"/>
</svg>
